# xmcd CD database file
#
# Track frame offsets:
#	150
#	7053
#	23434
#	38999
#	65263
#	84047
#	102974
#	125721
#	139781
#	152347
#	177472
#	194711
#
# Disc length: 2864 seconds
#
# Revision: 0
# Processed by: cddbd v1.5.2PL0 Copyright (c) Steve Scherf et al.
# Submitted via: CDex 1.51
#
DISCID=970b2e0c
DTITLE=Delta Spirit - Ode To Sunshine
DYEAR=1900
DGENRE=Salsa
TTITLE0=Tomorrow Goes Away
TTITLE1=Trashcan
TTITLE2=People C'mon
TTITLE3=House Built For Two
TTITLE4=Strange Vine
TTITLE5=Streetwalker
TTITLE6=People, Turn Around
TTITLE7=Parade
TTITLE8=Bleeding Bells
TTITLE9=Children
TTITLE10=Ode To Sunshine
TTITLE11=People, Turn Around (alternate)
EXTD=
EXTT0=
EXTT1=
EXTT2=
EXTT3=
EXTT4=
EXTT5=
EXTT6=
EXTT7=
EXTT8=
EXTT9=
EXTT10=
EXTT11=
PLAYORDER=
